<mxfile host="app.diagrams.net" modified="2021-01-17T19:38:39.459Z" agent="5.0 (Macintosh; Intel Mac OS X 10_14_6) AppleWebKit/537.36 (KHTML, like Gecko) Chrome/83.0.4103.116 Safari/537.36" etag="ObRjNK9VWNwDUdsTIcsN" version="14.1.9" type="github">
  <diagram id="G6kuFu6opgcHD38waq7a" name="Page-1">
    <mxGraphModel dx="786" dy="491" grid="1" gridSize="10" guides="1" tooltips="1" connect="1" arrows="1" fold="1" page="1" pageScale="1" pageWidth="827" pageHeight="1169" math="0" shadow="0">
      <root>
        <mxCell id="0" />
        <mxCell id="1" parent="0" />
        <mxCell id="nTDdlAI-Cy0kuK_sTxGI-24" value="" style="edgeStyle=orthogonalEdgeStyle;rounded=0;orthogonalLoop=1;jettySize=auto;html=1;entryX=0.5;entryY=0;entryDx=0;entryDy=0;" edge="1" parent="1" source="nTDdlAI-Cy0kuK_sTxGI-1" target="nTDdlAI-Cy0kuK_sTxGI-17">
          <mxGeometry relative="1" as="geometry">
            <mxPoint x="365" y="238" as="targetPoint" />
          </mxGeometry>
        </mxCell>
        <mxCell id="nTDdlAI-Cy0kuK_sTxGI-25" style="edgeStyle=orthogonalEdgeStyle;rounded=0;orthogonalLoop=1;jettySize=auto;html=1;entryX=0.5;entryY=0;entryDx=0;entryDy=0;" edge="1" parent="1" source="nTDdlAI-Cy0kuK_sTxGI-1" target="nTDdlAI-Cy0kuK_sTxGI-13">
          <mxGeometry relative="1" as="geometry">
            <Array as="points">
              <mxPoint x="350" y="250" />
              <mxPoint x="170" y="250" />
            </Array>
          </mxGeometry>
        </mxCell>
        <mxCell id="nTDdlAI-Cy0kuK_sTxGI-26" style="edgeStyle=orthogonalEdgeStyle;rounded=0;orthogonalLoop=1;jettySize=auto;html=1;entryX=0.5;entryY=0;entryDx=0;entryDy=0;" edge="1" parent="1" source="nTDdlAI-Cy0kuK_sTxGI-1" target="nTDdlAI-Cy0kuK_sTxGI-20">
          <mxGeometry relative="1" as="geometry">
            <Array as="points">
              <mxPoint x="380" y="240" />
              <mxPoint x="550" y="240" />
            </Array>
          </mxGeometry>
        </mxCell>
        <mxCell id="nTDdlAI-Cy0kuK_sTxGI-1" value="master" style="aspect=fixed;html=1;points=[];align=center;image;fontSize=12;image=img/lib/mscae/Kubernetes.svg;" vertex="1" parent="1">
          <mxGeometry x="340" y="110" width="50" height="48" as="geometry" />
        </mxCell>
        <mxCell id="nTDdlAI-Cy0kuK_sTxGI-3" style="edgeStyle=orthogonalEdgeStyle;rounded=0;orthogonalLoop=1;jettySize=auto;html=1;" edge="1" parent="1" source="nTDdlAI-Cy0kuK_sTxGI-2" target="nTDdlAI-Cy0kuK_sTxGI-1">
          <mxGeometry relative="1" as="geometry" />
        </mxCell>
        <mxCell id="nTDdlAI-Cy0kuK_sTxGI-2" value="etcd" style="html=1;dashed=0;whitespace=wrap;fillColor=#2875E2;strokeColor=#ffffff;points=[[0.005,0.63,0],[0.1,0.2,0],[0.9,0.2,0],[0.5,0,0],[0.995,0.63,0],[0.72,0.99,0],[0.5,1,0],[0.28,0.99,0]];shape=mxgraph.kubernetes.icon;prIcon=etcd;spacingBottom=-80;" vertex="1" parent="1">
          <mxGeometry x="175" y="110" width="50" height="48" as="geometry" />
        </mxCell>
        <mxCell id="nTDdlAI-Cy0kuK_sTxGI-4" value="API Server" style="rounded=1;whiteSpace=wrap;html=1;" vertex="1" parent="1">
          <mxGeometry x="150" y="190" width="100" height="30" as="geometry" />
        </mxCell>
        <mxCell id="nTDdlAI-Cy0kuK_sTxGI-6" style="edgeStyle=orthogonalEdgeStyle;rounded=0;orthogonalLoop=1;jettySize=auto;html=1;entryX=0;entryY=0.5;entryDx=0;entryDy=0;" edge="1" parent="1" source="nTDdlAI-Cy0kuK_sTxGI-5" target="nTDdlAI-Cy0kuK_sTxGI-4">
          <mxGeometry relative="1" as="geometry" />
        </mxCell>
        <mxCell id="nTDdlAI-Cy0kuK_sTxGI-5" value="$kubectl&lt;br&gt;" style="shape=image;html=1;verticalAlign=top;verticalLabelPosition=bottom;labelBackgroundColor=#ffffff;imageAspect=0;aspect=fixed;image=https://cdn1.iconfinder.com/data/icons/ampola-final-by-ampeross/128/cmd.png" vertex="1" parent="1">
          <mxGeometry x="22" y="178.5" width="50" height="53" as="geometry" />
        </mxCell>
        <mxCell id="nTDdlAI-Cy0kuK_sTxGI-11" style="edgeStyle=orthogonalEdgeStyle;rounded=0;orthogonalLoop=1;jettySize=auto;html=1;exitX=0;exitY=0.5;exitDx=0;exitDy=0;" edge="1" parent="1" source="nTDdlAI-Cy0kuK_sTxGI-8" target="nTDdlAI-Cy0kuK_sTxGI-1">
          <mxGeometry relative="1" as="geometry" />
        </mxCell>
        <mxCell id="nTDdlAI-Cy0kuK_sTxGI-8" value="Controller &lt;br&gt;Manager" style="rounded=1;whiteSpace=wrap;html=1;" vertex="1" parent="1">
          <mxGeometry x="470" y="98" width="90" height="32" as="geometry" />
        </mxCell>
        <mxCell id="nTDdlAI-Cy0kuK_sTxGI-12" style="edgeStyle=orthogonalEdgeStyle;rounded=0;orthogonalLoop=1;jettySize=auto;html=1;" edge="1" parent="1" source="nTDdlAI-Cy0kuK_sTxGI-9" target="nTDdlAI-Cy0kuK_sTxGI-1">
          <mxGeometry relative="1" as="geometry" />
        </mxCell>
        <mxCell id="nTDdlAI-Cy0kuK_sTxGI-9" value="Scheduler" style="verticalLabelPosition=bottom;html=1;verticalAlign=top;align=center;strokeColor=none;fillColor=#00BEF2;shape=mxgraph.azure.scheduler;pointerEvents=1;" vertex="1" parent="1">
          <mxGeometry x="470" y="150" width="50" height="50" as="geometry" />
        </mxCell>
        <mxCell id="nTDdlAI-Cy0kuK_sTxGI-15" value="" style="group" vertex="1" connectable="0" parent="1">
          <mxGeometry x="100" y="300" width="140" height="100" as="geometry" />
        </mxCell>
        <mxCell id="nTDdlAI-Cy0kuK_sTxGI-13" value="&lt;b&gt;&lt;font style=&quot;font-size: 16px&quot;&gt;Node&lt;/font&gt;&lt;/b&gt;" style="rounded=1;whiteSpace=wrap;html=1;spacingBottom=60;" vertex="1" parent="nTDdlAI-Cy0kuK_sTxGI-15">
          <mxGeometry width="140" height="100" as="geometry" />
        </mxCell>
        <mxCell id="nTDdlAI-Cy0kuK_sTxGI-14" value="Pod" style="html=1;dashed=0;whitespace=wrap;fillColor=#2875E2;strokeColor=#ffffff;points=[[0.005,0.63,0],[0.1,0.2,0],[0.9,0.2,0],[0.5,0,0],[0.995,0.63,0],[0.72,0.99,0],[0.5,1,0],[0.28,0.99,0]];shape=mxgraph.kubernetes.icon;prIcon=pod;spacingBottom=-70;" vertex="1" parent="nTDdlAI-Cy0kuK_sTxGI-15">
          <mxGeometry x="45" y="30" width="50" height="48" as="geometry" />
        </mxCell>
        <mxCell id="nTDdlAI-Cy0kuK_sTxGI-16" value="" style="group" vertex="1" connectable="0" parent="1">
          <mxGeometry x="295" y="300" width="140" height="100" as="geometry" />
        </mxCell>
        <mxCell id="nTDdlAI-Cy0kuK_sTxGI-17" value="&lt;b&gt;&lt;font style=&quot;font-size: 16px&quot;&gt;Node&lt;/font&gt;&lt;/b&gt;" style="rounded=1;whiteSpace=wrap;html=1;spacingBottom=60;" vertex="1" parent="nTDdlAI-Cy0kuK_sTxGI-16">
          <mxGeometry width="140" height="100" as="geometry" />
        </mxCell>
        <mxCell id="nTDdlAI-Cy0kuK_sTxGI-18" value="Pod" style="html=1;dashed=0;whitespace=wrap;fillColor=#2875E2;strokeColor=#ffffff;points=[[0.005,0.63,0],[0.1,0.2,0],[0.9,0.2,0],[0.5,0,0],[0.995,0.63,0],[0.72,0.99,0],[0.5,1,0],[0.28,0.99,0]];shape=mxgraph.kubernetes.icon;prIcon=pod;spacingBottom=-70;" vertex="1" parent="nTDdlAI-Cy0kuK_sTxGI-16">
          <mxGeometry x="45" y="30" width="50" height="48" as="geometry" />
        </mxCell>
        <mxCell id="nTDdlAI-Cy0kuK_sTxGI-19" value="" style="group" vertex="1" connectable="0" parent="1">
          <mxGeometry x="480" y="300" width="140" height="100" as="geometry" />
        </mxCell>
        <mxCell id="nTDdlAI-Cy0kuK_sTxGI-20" value="&lt;b&gt;&lt;font style=&quot;font-size: 16px&quot;&gt;Node&lt;/font&gt;&lt;/b&gt;" style="rounded=1;whiteSpace=wrap;html=1;spacingBottom=60;" vertex="1" parent="nTDdlAI-Cy0kuK_sTxGI-19">
          <mxGeometry width="140" height="100" as="geometry" />
        </mxCell>
        <mxCell id="nTDdlAI-Cy0kuK_sTxGI-21" value="Pod" style="html=1;dashed=0;whitespace=wrap;fillColor=#2875E2;strokeColor=#ffffff;points=[[0.005,0.63,0],[0.1,0.2,0],[0.9,0.2,0],[0.5,0,0],[0.995,0.63,0],[0.72,0.99,0],[0.5,1,0],[0.28,0.99,0]];shape=mxgraph.kubernetes.icon;prIcon=pod;spacingBottom=-70;" vertex="1" parent="nTDdlAI-Cy0kuK_sTxGI-19">
          <mxGeometry x="45" y="30" width="50" height="48" as="geometry" />
        </mxCell>
      </root>
    </mxGraphModel>
  </diagram>
</mxfile>
